# xmcd CD database file
#
# Track frame offsets:
#	150
#	12297
#	28197
#	40460
#	55187
#	70877
#	88375
#	103175
#	116042
#	133010
#	148207
#	164059
#	182582
#	202300
#
# Disc length: 2960 seconds
#
# Revision: 3
# Processed by: cddbd v1.4PL0 Copyright (c) Steve Scherf et al.
# Submitted via: CDex 1.40Release
#
DISCID=df0b8e0e,e90b8e0e
DTITLE=The Blues Band - Itchy Feet
DYEAR=1981
DGENRE=Blues
TTITLE0=Talkin' Woman Blues
TTITLE1=Who's Right, Who's Wrong
TTITLE2=Rock'n'Roll Radio
TTITLE3=Itchy Feet
TTITLE4=Ultimatum Time
TTITLE5=So Lonely
TTITLE6=Maggies Farm
TTITLE7=Come On
TTITLE8=Turn Around
TTITLE9=I Can't Be Satisfied
TTITLE10=Got To Love You Baby
TTITLE11=Nothin' But The Blues
TTITLE12=Let Your Bucket Down
TTITLE13=Back Door Man
EXTD=AAD-BGD Records-1981 YEAR: 1981 ID3G: 0
EXTT0=
EXTT1=
EXTT2=
EXTT3=
EXTT4=
EXTT5=
EXTT6=
EXTT7=
EXTT8=
EXTT9=
EXTT10=
EXTT11=
EXTT12=
EXTT13=
PLAYORDER=
